<?xml version="1.0" encoding="iso-8859-1"?>
<!-- Generator: Adobe Illustrator 21.0.0, SVG Export Plug-In . SVG Version: 6.00 Build 0)  -->
<svg version="1.1" id="Capa_1" xmlns="http://www.w3.org/2000/svg" xmlns:xlink="http://www.w3.org/1999/xlink" x="0px" y="0px"
	 viewBox="0 0 512.001 512.001" style="enable-background:new 0 0 512.001 512.001;" xml:space="preserve">
<path style="fill:#B2D66C;" d="M330.163,291.623h-24.53c-18.35,0-33.434,13.969-35.206,31.852h-27.836
	c-1.772-17.884-16.857-31.852-35.206-31.852h-24.53c-4.577,0-8.288,3.71-8.288,8.288v11.297c0,19.542,15.842,35.383,35.383,35.383
	h18.236h14.582h27.484h4.595h28.223c19.542,0,35.383-15.842,35.383-35.383v-11.297C338.451,295.334,334.741,291.623,330.163,291.623
	z"/>
<g>
	<path style="fill:#8FD650;" d="M322.77,291.623h-17.136c-18.35,0-33.434,13.969-35.206,31.852h17.136
		C289.336,305.592,304.421,291.623,322.77,291.623z"/>
	<path style="fill:#8FD650;" d="M191.704,311.208v-11.297c0-4.578,3.71-8.288,8.288-8.288h-17.136c-4.577,0-8.288,3.71-8.288,8.288
		v11.297c0,19.542,15.842,35.383,35.383,35.383h17.137C207.546,346.59,191.704,330.749,191.704,311.208z"/>
</g>
<rect x="241.499" y="199.104" style="fill:#F8D46E;" width="28.501" height="176.892"/>
<path style="fill:#F7C852;" d="M255.746,199.106h-14.251v50.073v126.82h14.251V249.901c0.084,0,0.17,0.003,0.254,0.003
	c4.723,0,9.39-0.235,13.996-0.681v-50.119h-14.251V199.106z"/>
<rect x="166.428" y="383.742" style="fill:#4ACE99;" width="181.188" height="120.622"/>
<path style="fill:#38C689;" d="M272.018,422.184h75.594v-38.44H166.424v120.622h23.412l0,0
	C189.836,458.979,226.631,422.184,272.018,422.184z"/>
<path style="fill:#FE4583;" d="M399.525,45.259v39.729c0,39.637-16.063,75.508-42.04,101.486s-61.848,42.04-101.486,42.04
	c-79.265,0-143.525-64.261-143.525-143.525V45.259l135.117,89.118c2.555,1.68,5.476,2.524,8.408,2.524
	c2.932,0,5.853-0.845,8.408-2.524L399.525,45.259z"/>
<path style="fill:#FC3268;" d="M155.566,84.988V73.681l-43.091-28.422v39.729c0,79.265,64.261,143.525,143.525,143.525
	c7.324,0,14.518-0.552,21.547-1.61C208.504,216.508,155.566,156.93,155.566,84.988z"/>
<path style="fill:#EDE6F5;" d="M192.89,168.456c0,14.373-6.087,27.31-15.808,36.421c-28.084-18.516-49.277-46.63-58.896-79.682h0.01
	c7.309-4.204,15.778-6.616,24.817-6.616C170.557,118.579,192.89,140.912,192.89,168.456z"/>
<path style="fill:#E0D3F2;" d="M177.082,204.877c7.208-6.755,12.411-15.618,14.622-25.607
	c-14.437-16.396-25.206-35.949-31.039-57.466c-1.666-0.631-3.372-1.183-5.118-1.635c-0.097-0.024-0.193-0.047-0.289-0.07
	c-0.511-0.129-1.028-0.243-1.545-0.356c-0.567-0.12-1.135-0.237-1.709-0.339c-0.054-0.01-0.109-0.019-0.163-0.03
	c-2.913-0.509-5.912-0.778-8.972-0.79c-8.984,0.025-17.402,2.43-24.672,6.611h-0.01
	C127.805,158.247,148.998,186.361,177.082,204.877z"/>
<g>
	<path style="fill:#EDE6F5;" d="M394.09,124.238c-6.769,23.86-19.544,45.175-36.604,62.235c-6.525,6.525-13.681,12.429-21.356,17.61
		c-9.243-9.059-14.984-21.671-14.984-35.627c0-27.545,22.333-49.878,49.878-49.878C379.351,118.579,387.188,120.625,394.09,124.238z
		"/>
	<circle style="fill:#EDE6F5;" cx="257.022" cy="182.705" r="23.412"/>
	<path style="fill:#EDE6F5;" d="M388.634,15.862l-33.179-15.62c-1.705-0.803-3.648,0.506-3.546,2.387l1.953,36.167l0.334,2.855
		l35.933-23.222L388.634,15.862z"/>
	<path style="fill:#EDE6F5;" d="M353.078,39.304l-33.249-15.651c-1.705-0.802-3.648,0.506-3.546,2.387l1.964,36.248l1.804,2.476
		l33.864-23.679L353.078,39.304z"/>
	<path style="fill:#EDE6F5;" d="M284.203,47.066c-1.705-0.803-3.648,0.506-3.547,2.387l1.964,36.329l1.192,1.738l32.836-21.448
		l0.887-3.314L284.203,47.066z"/>
</g>
<g>
	<path style="fill:#E0D3F2;" d="M362.9,3.747l-7.445-3.505c-1.705-0.803-3.648,0.506-3.546,2.387l1.953,36.167l0.334,2.855
		l10.389-6.713L362.9,3.747z"/>
	<path style="fill:#E0D3F2;" d="M327.274,27.157l-7.445-3.505c-1.705-0.802-3.648,0.506-3.546,2.387l1.964,36.248l1.804,2.476
		l8.924-6.24L327.274,27.157z"/>
	<path style="fill:#E0D3F2;" d="M291.647,50.57l-7.445-3.505c-1.705-0.803-3.648,0.506-3.547,2.387l1.964,36.329l1.192,1.738
		l9.498-6.204L291.647,50.57z"/>
</g>
<g>
	<path style="fill:#EDE6F5;" d="M229.642,47.066l-34.084,16.047l-2.625,2.624l37.661,22.57l0.489-1.273l0.081-0.122l2.025-37.459
		C233.291,47.571,231.347,46.263,229.642,47.066z"/>
	<path style="fill:#EDE6F5;" d="M194.015,23.654l-34.084,16.047l-4.032,4.032l38.482,22.181l1.156-2.414l0.02-0.387l2.004-37.072
		C197.664,24.159,195.72,22.851,194.015,23.654z"/>
	<path style="fill:#EDE6F5;" d="M158.388,0.242l-34.369,16.181l-3.362,3.362l36.895,23.703l2.358-3.399l0.02-0.387l2.004-37.072
		C162.037,0.747,160.093-0.561,158.388,0.242z"/>
</g>
<g>
	<path style="fill:#E0D3F2;" d="M232.454,63.055l0.735-13.602c0.102-1.881-1.842-3.19-3.546-2.387l-34.084,16.047l-2.625,2.624
		l14.881,8.918L232.454,63.055z"/>
	<path style="fill:#E0D3F2;" d="M170.509,52.033l26.317-12.391l0.735-13.602c0.102-1.881-1.842-3.19-3.546-2.387L159.931,39.7
		l-4.032,4.032l14.534,8.377L170.509,52.033z"/>
	<path style="fill:#E0D3F2;" d="M161.199,16.23l0.735-13.602c0.102-1.881-1.842-3.19-3.546-2.387l-34.369,16.181l-3.362,3.362
		l13.953,8.965L161.199,16.23z"/>
</g>
<g>
	<polygon style="fill:#FECF54;" points="353.862,38.795 353.913,39.701 353.078,39.304 	"/>
	<polygon style="fill:#FECF54;" points="318.245,62.289 318.286,63.113 317.533,62.757 	"/>
	<path style="fill:#FECF54;" d="M412.27,18.559c4.642,7.044,2.697,16.51-4.336,21.152l-143.525,94.666
		c-2.555,1.68-5.476,2.524-8.408,2.524c-2.932,0-5.853-0.845-8.408-2.524L104.067,39.711c-7.034-4.642-8.978-14.108-4.336-21.152
		c4.642-7.044,14.108-8.978,21.152-4.336l3.329,2.199l35.891,23.666l35.586,23.473l35.586,23.473L256,103.341l26.618-17.559
		l34.914-23.025l0.753,0.356l-0.041-0.825l34.833-22.984l0.835,0.397l-0.051-0.906l34.772-22.933l2.484-1.639
		C398.161,9.581,407.628,11.525,412.27,18.559z"/>
</g>
<path style="fill:#F7C852;" d="M260.987,121.532c2.932,0,5.853-0.845,8.408-2.524L412.92,24.342c0.497-0.328,0.962-0.685,1.408-1.06
	c-0.407-1.637-1.076-3.235-2.057-4.724c-4.642-7.034-14.108-8.978-21.152-4.336l-2.484,1.639l-34.772,22.933l0.051,0.906
	l-0.835-0.397l-34.833,22.984l0.041,0.825l-0.753-0.356L282.62,85.781l-26.618,17.559l-24.725-16.307L195.69,63.56l-35.586-23.473
	l-35.891-23.666l-3.329-2.199c-5.779-3.808-13.183-3.183-18.222,1.05c0.891,3.59,3.063,6.872,6.391,9.069l143.525,94.666
	C255.134,120.687,258.056,121.532,260.987,121.532z"/>
<path style="fill:#17C178;" d="M366.952,360.383v29.418c0,7.614-6.179,13.793-13.793,13.793h-5.548H166.424h-5.548
	c-7.614,0-13.793-6.179-13.793-13.793v-29.418c0-7.614,6.179-13.793,13.793-13.793H353.16
	C360.774,346.59,366.952,352.769,366.952,360.383z"/>
<path style="fill:#00B764;" d="M194.926,383.744L194.926,383.744c-10.681,0-19.34-8.659-19.34-19.34V346.59h-14.709
	c-7.617,0-13.793,6.176-13.793,13.793v29.418c0,7.617,6.176,13.793,13.793,13.793h5.548h181.188h5.548
	c7.617,0,13.793-6.176,13.793-13.793v-6.057L194.926,383.744L194.926,383.744z"/>
<path style="fill:#17C178;" d="M387.82,512.001h-262.62c-4.217,0-7.634-3.418-7.634-7.634c0-4.216,3.417-7.634,7.634-7.634h262.62
	c4.217,0,7.634,3.418,7.634,7.634C395.454,508.583,392.037,512.001,387.82,512.001z"/>
<g>
</g>
<g>
</g>
<g>
</g>
<g>
</g>
<g>
</g>
<g>
</g>
<g>
</g>
<g>
</g>
<g>
</g>
<g>
</g>
<g>
</g>
<g>
</g>
<g>
</g>
<g>
</g>
<g>
</g>
</svg>
