<?xml version="1.0" encoding="iso-8859-1"?>
<!-- Generator: Adobe Illustrator 21.0.0, SVG Export Plug-In . SVG Version: 6.00 Build 0)  -->
<svg version="1.1" id="Capa_1" xmlns="http://www.w3.org/2000/svg" xmlns:xlink="http://www.w3.org/1999/xlink" x="0px" y="0px"
	 viewBox="0 0 512 512" style="enable-background:new 0 0 512 512;" xml:space="preserve">
<rect y="142.065" style="fill:#FE4583;" width="333.046" height="74.817"/>
<path style="fill:#EA2D88;" d="M292.729,161.314h-86.127c-14.74,0-27.703,9.419-32.259,23.438
	c-3.663,11.276-1.169,23.334,6.146,32.133h152.557v-74.822h-34.062L292.729,161.314z"/>
<rect y="192.074" style="fill:#FE715A;" width="333.046" height="74.817"/>
<path style="fill:#F75B4B;" d="M186.66,222.677l60.858,44.217h85.528v-74.822H172.841
	C171.721,203.83,176.792,215.505,186.66,222.677z"/>
<rect y="245.175" style="fill:#FECF54;" width="333.046" height="74.817"/>
<polygon style="fill:#F9BD38;" points="256.345,273.307 241.176,319.995 333.046,319.995 333.046,245.173 217.623,245.173 "/>
<path style="fill:#85C255;" d="M0,349.384h280.391c29.081,0,52.655-23.575,52.655-52.655l0,0H0V349.384z"/>
<path style="fill:#00B764;" d="M231.627,349.384h48.764c29.081,0,52.655-23.575,52.655-52.655l0,0h-84.31L231.627,349.384z"/>
<path style="fill:#FFEA6E;" d="M496.61,179.874c14.879,0,21.065,19.044,9.032,27.788l-71.569,51.998
	c-5.382,3.908-7.63,10.837-5.578,17.168l27.335,84.128c4.599,14.147-11.6,25.922-23.633,17.168l-71.559-51.988
	c-5.393-3.908-12.672-3.908-18.065,0l-71.558,51.988c-12.033,8.754-28.232-3.021-23.633-17.168l27.335-84.128
	c2.052-6.331-0.196-13.26-5.578-17.168l-71.569-51.998c-12.033-8.744-5.846-27.788,9.032-27.788h88.458
	c6.651,0,12.549-4.279,14.6-10.61l27.335-84.128c4.599-14.147,24.623-14.147,29.221,0l27.335,84.128
	c2.052,6.331,7.95,10.61,14.6,10.61L496.61,179.874L496.61,179.874z"/>
<g>
	<path style="fill:#FFDE3B;" d="M340.691,169.264l26.43-81.345l-0.904-2.783c-4.599-14.147-24.623-14.147-29.221,0l-27.335,84.128
		c-2.052,6.331-7.95,10.61-14.6,10.61h31.03C332.741,179.874,338.639,175.594,340.691,169.264z"/>
	<path style="fill:#FFDE3B;" d="M278.412,360.956l27.335-84.128c2.052-6.331-0.196-13.26-5.578-17.168l-71.569-51.998
		c-12.033-8.744-5.846-27.788,9.032-27.788h-31.03c-14.879,0-21.065,19.044-9.032,27.788l71.569,51.998
		c5.382,3.908,7.63,10.837,5.578,17.168l-27.335,84.128c-4.599,14.147,11.6,25.922,23.633,17.168l8.065-5.86
		C277.507,368.993,277.072,365.077,278.412,360.956z"/>
	<path style="fill:#FFDE3B;" d="M391.668,326.135c-5.393-3.908-12.672-3.908-18.065,0l-6.483,4.709l65.076,47.279
		c8.527,6.203,19.136,2.093,22.965-5.86L391.668,326.135z"/>
</g>
<g>
	<path style="fill:#FFB90B;" d="M312.94,243.627L312.94,243.627c-5.126,0-9.28-4.154-9.28-9.28v-20.622
		c0-5.126,4.154-9.28,9.28-9.28l0,0c5.126,0,9.28,4.154,9.28,9.28v20.622C322.219,239.471,318.065,243.627,312.94,243.627z"/>
	<path style="fill:#FFB90B;" d="M389.241,243.627L389.241,243.627c5.126,0,9.28-4.154,9.28-9.28v-20.622
		c0-5.126-4.154-9.28-9.28-9.28l0,0c-5.126,0-9.28,4.154-9.28,9.28v20.622C379.961,239.471,384.115,243.627,389.241,243.627z"/>
	<path style="fill:#FFB90B;" d="M351.606,299.581c-14.496,0-28.993-5.84-43.086-17.522c-3.288-2.726-3.745-7.6-1.019-10.889
		c2.727-3.287,7.602-3.744,10.889-1.019c22.663,18.784,43.769,18.784,66.432,0c3.287-2.725,8.162-2.268,10.889,1.019
		c2.726,3.288,2.269,8.163-1.019,10.889C380.598,293.741,366.102,299.581,351.606,299.581z"/>
</g>
<g>
	<path style="fill:#7CCAFD;" d="M444.405,83.806c-4.272,0-7.733-3.461-7.733-7.733v-8.249c0-4.272,3.461-7.733,7.733-7.733
		c4.272,0,7.733,3.461,7.733,7.733v8.249C452.138,80.343,448.677,83.806,444.405,83.806z"/>
	<path style="fill:#7CCAFD;" d="M471.214,103.397h-8.249c-4.272,0-7.733-3.461-7.733-7.733c0-4.272,3.461-7.733,7.733-7.733h8.249
		c4.272,0,7.733,3.461,7.733,7.733C478.947,99.935,475.486,103.397,471.214,103.397z"/>
	<path style="fill:#7CCAFD;" d="M443.374,130.205c-4.272,0-7.733-3.461-7.733-7.733v-8.249c0-4.272,3.461-7.733,7.733-7.733
		c4.272,0,7.733,3.461,7.733,7.733v8.249C451.107,126.743,447.646,130.205,443.374,130.205z"/>
	<path style="fill:#7CCAFD;" d="M424.814,102.366h-8.249c-4.272,0-7.733-3.461-7.733-7.733c0-4.272,3.461-7.733,7.733-7.733h8.249
		c4.272,0,7.733,3.461,7.733,7.733C432.547,98.904,429.086,102.366,424.814,102.366z"/>
	<path style="fill:#7CCAFD;" d="M131.981,405.51c-4.272,0-7.733-3.461-7.733-7.733v-8.249c0-4.272,3.461-7.733,7.733-7.733
		c4.272,0,7.733,3.461,7.733,7.733v8.249C139.714,402.047,136.253,405.51,131.981,405.51z"/>
	<path style="fill:#7CCAFD;" d="M158.79,425.101h-8.249c-4.272,0-7.733-3.461-7.733-7.733s3.461-7.733,7.733-7.733h8.249
		c4.272,0,7.733,3.461,7.733,7.733S163.062,425.101,158.79,425.101z"/>
	<path style="fill:#7CCAFD;" d="M130.95,451.909c-4.272,0-7.733-3.461-7.733-7.733v-8.249c0-4.272,3.461-7.733,7.733-7.733
		c4.272,0,7.733,3.461,7.733,7.733v8.249C138.683,448.447,135.222,451.909,130.95,451.909z"/>
	<path style="fill:#7CCAFD;" d="M112.39,424.069h-8.249c-4.272,0-7.733-3.461-7.733-7.733c0-4.272,3.461-7.733,7.733-7.733h8.249
		c4.272,0,7.733,3.461,7.733,7.733C120.123,420.608,116.662,424.069,112.39,424.069z"/>
</g>
<g>
</g>
<g>
</g>
<g>
</g>
<g>
</g>
<g>
</g>
<g>
</g>
<g>
</g>
<g>
</g>
<g>
</g>
<g>
</g>
<g>
</g>
<g>
</g>
<g>
</g>
<g>
</g>
<g>
</g>
</svg>
